<svg xmlns="http://www.w3.org/2000/svg" width="34.583" height="32.569" viewBox="0 0 34.583 32.569">
  <path id="Pfad_184" data-name="Pfad 184" d="M669.124,488.38a1.572,1.572,0,0,0-1.151-.5h-6.812V487.1a8.45,8.45,0,0,0-16.9,0v.774h-7.739a1.566,1.566,0,0,0-1.561,1.692l1.623,20.212a1.575,1.575,0,0,0,1.561,1.441h28.2a1.573,1.573,0,0,0,1.561-1.441l1.624-20.212A1.575,1.575,0,0,0,669.124,488.38ZM645.629,487.1a7.082,7.082,0,0,1,14.165,0v.774H645.629Zm20.919,22.569a.2.2,0,0,1-.2.183h-28.2a.2.2,0,0,1-.2-.183l-1.623-20.212a.2.2,0,0,1,.2-.215h7.739v3.021a.684.684,0,0,0,1.368,0v-3.021h14.165v3.021a.684.684,0,0,0,1.367,0v-3.021h6.812a.2.2,0,0,1,.2.215Z" transform="translate(-634.956 -478.652)" fill="#313133"/>
</svg>
